<?xml version="1.0" encoding="UTF-8"?>
<svg id="Layer_1" xmlns="http://www.w3.org/2000/svg" viewBox="0 0 106.98 77.86">
  <defs>
    <style>
      .cls-1 {
        fill: #ebedf0;
      }

      .cls-2 {
        fill: #243e90;
      }
    </style>
  </defs>
  <rect class="cls-2" width="106.98" height="77.86"/>
  <g>
    <path class="cls-1" d="M20.08,7.25v27.76h-3.08V10.33h-4.4v24.68h-3.08V7.25h10.56Z"/>
    <path class="cls-1" d="M31.8,7.01c.77,0,1.43.11,1.98.34.55.23.99.53,1.32.92.33.39.58.84.74,1.36.16.52.24,1.07.24,1.66v19.68c0,.59-.08,1.14-.24,1.66-.16.52-.41.97-.74,1.36-.33.39-.77.69-1.32.92-.55.23-1.21.34-1.98.34h-2.36c-.77,0-1.43-.11-1.98-.34-.55-.23-.99-.53-1.32-.92-.33-.39-.58-.84-.74-1.36-.16-.52-.24-1.07-.24-1.66V11.29c0-.59.08-1.14.24-1.66.16-.52.41-.97.74-1.36.33-.39.77-.69,1.32-.92.55-.23,1.21-.34,1.98-.34h2.36ZM31.8,32.17c.43,0,.73-.12.92-.36.19-.24.28-.52.28-.84V11.29c0-.32-.09-.6-.28-.84-.19-.24-.49-.36-.92-.36h-2.36c-.45,0-.77.12-.94.36-.17.24-.26.52-.26.84v19.68c0,.32.09.6.26.84.17.24.49.36.94.36h2.36Z"/>
    <path class="cls-1" d="M47.4,16.05c.77,0,1.43.11,1.98.34.55.23.99.53,1.32.92.33.39.58.84.74,1.36s.24,1.07.24,1.66v10.4c0,.77-.11,1.43-.34,1.98-.23.55-.53.99-.92,1.32-.39.33-.84.58-1.36.74-.52.16-1.07.24-1.66.24h-6.04V7.25h9.52v3.08h-6.44v5.72h2.96ZM48.6,20.33c0-.32-.09-.6-.26-.84-.17-.24-.49-.36-.94-.36h-2.96v12.8h2.96c.35,0,.63-.09.86-.26.23-.17.34-.49.34-.94v-10.4Z"/>
    <path class="cls-1" d="M65.96,7.25v3.08h-6.16v5.72h4.64v3.12h-4.64v12.76h6.16v3.08h-9.24V7.25h9.24Z"/>
    <path class="cls-1" d="M84.16,31.93v6.76h-2.12l-.6-3.68h-9.56l-.28,3.68h-2.48v-6.76h1.8c.56-.37.85-.99.88-1.84l.92-22.84h9.32v24.68h2.12ZM78.96,31.93V10.33h-3.28l-.84,19.88c-.05.69-.27,1.27-.64,1.72h4.76Z"/>
    <path class="cls-1" d="M94.4,7.01c.77,0,1.43.11,1.98.34.55.23.99.53,1.32.92.33.39.58.84.74,1.36s.24,1.07.24,1.66v19.68c0,.59-.08,1.14-.24,1.66s-.41.97-.74,1.36c-.33.39-.77.69-1.32.92-.55.23-1.21.34-1.98.34h-2.36c-.77,0-1.43-.11-1.98-.34-.55-.23-.99-.53-1.32-.92-.33-.39-.58-.84-.74-1.36s-.24-1.07-.24-1.66V11.29c0-.59.08-1.14.24-1.66s.41-.97.74-1.36c.33-.39.77-.69,1.32-.92.55-.23,1.21-.34,1.98-.34h2.36ZM94.4,32.17c.43,0,.73-.12.92-.36.19-.24.28-.52.28-.84V11.29c0-.32-.09-.6-.28-.84-.19-.24-.49-.36-.92-.36h-2.36c-.45,0-.77.12-.94.36-.17.24-.26.52-.26.84v19.68c0,.32.09.6.26.84.17.24.49.36.94.36h2.36Z"/>
    <path class="cls-1" d="M17.36,42.25h3.08v27.76h-3.08v-15.84h-4.76v15.84h-3.08v-27.76h3.08v8.84h4.76v-8.84Z"/>
    <path class="cls-1" d="M32.16,42.01c.77,0,1.43.11,1.98.34.55.23.99.53,1.32.92.33.39.58.84.74,1.36.16.52.24,1.07.24,1.66v19.68c0,.59-.08,1.14-.24,1.66-.16.52-.41.97-.74,1.36-.33.39-.77.69-1.32.92-.55.23-1.21.34-1.98.34h-2.36c-.77,0-1.43-.11-1.98-.34-.55-.23-.99-.53-1.32-.92-.33-.39-.58-.84-.74-1.36-.16-.52-.24-1.07-.24-1.66v-19.68c0-.59.08-1.14.24-1.66.16-.52.41-.97.74-1.36.33-.39.77-.69,1.32-.92.55-.23,1.21-.34,1.98-.34h2.36ZM32.16,67.17c.43,0,.73-.12.92-.36.19-.24.28-.52.28-.84v-19.68c0-.32-.09-.6-.28-.84-.19-.24-.49-.36-.92-.36h-2.36c-.45,0-.77.12-.94.36-.17.24-.26.52-.26.84v19.68c0,.32.09.6.26.84.17.24.49.36.94.36h2.36Z"/>
    <path class="cls-1" d="M49.44,58.13h3.08v7.84c0,.59-.08,1.14-.24,1.66-.16.52-.41.97-.74,1.36-.33.39-.77.69-1.32.92-.55.23-1.21.34-1.98.34h-2.32c-.77,0-1.43-.11-1.98-.34-.55-.23-.99-.53-1.32-.92-.33-.39-.58-.84-.74-1.36-.16-.52-.24-1.07-.24-1.66v-19.68c0-.59.08-1.14.24-1.66.16-.52.41-.97.74-1.36.33-.39.77-.69,1.32-.92.55-.23,1.21-.34,1.98-.34h2.32c.77,0,1.43.11,1.98.34.55.23.99.53,1.32.92.33.39.58.84.74,1.36.16.52.24,1.07.24,1.66v5.36h-3.08v-5.36c0-.32-.09-.6-.28-.84-.19-.24-.49-.36-.92-.36h-2.32c-.43,0-.73.12-.92.36-.19.24-.28.52-.28.84v19.68c0,.32.09.6.28.84.19.24.49.36.92.36h2.32c.43,0,.73-.12.92-.36.19-.24.28-.52.28-.84v-7.84Z"/>
    <path class="cls-1" d="M70.84,66.93v6.76h-2.08l-.64-3.68h-10.32v-27.76h3.08v24.68h4.32v-24.68h3.08v24.68h2.56Z"/>
    <path class="cls-1" d="M84,42.25v3.08h-6.16v5.72h4.64v3.12h-4.64v12.76h6.16v3.08h-9.24v-27.76h9.24Z"/>
    <path class="cls-1" d="M94.88,42.25c.77,0,1.43.11,1.98.34.55.23.99.53,1.32.92.33.39.58.84.74,1.36s.24,1.07.24,1.66v1.96c0,1.25-.22,2.19-.66,2.82-.44.63-1.02,1.06-1.74,1.3.72.27,1.3.71,1.74,1.34.44.63.66,1.57.66,2.82v8.96c0,.77-.11,1.43-.34,1.98-.23.55-.53.99-.92,1.32-.39.33-.84.58-1.36.74-.52.16-1.07.24-1.66.24h-5.96v-27.76h5.96ZM96.08,46.53c0-.32-.09-.6-.26-.84-.17-.24-.49-.36-.94-.36h-2.88v5.76h2.08c.56,0,1.03-.19,1.42-.58.39-.39.58-.93.58-1.62v-2.36ZM96.08,56.37c0-.69-.19-1.23-.58-1.62-.39-.39-.86-.58-1.42-.58h-2.08v12.76h2.88c.35,0,.63-.09.86-.26.23-.17.34-.49.34-.94v-9.36Z"/>
  </g>
</svg>